<svg id="Layer_1" data-name="Layer 1" xmlns="http://www.w3.org/2000/svg" viewBox="0 0 232 238"><defs><style>.cls-1{fill:#272b30;}.cls-2{fill:#fff;}</style></defs><title>ic icon</title><path class="cls-1" d="M117,229.83A110,110,0,1,1,227,119.88,110.07,110.07,0,0,1,117,229.83Zm0-217.9A108,108,0,1,0,225,119.88,108.07,108.07,0,0,0,117,11.93Z"/><path class="cls-1" d="M156.93,90h-8.2c-0.53-14-4.34-37.1-31.83-37.1C92.28,52.9,86.35,71,85.22,90h-8.4C75,90,69,96.2,69,98V178.1c0,1.79,6,7.9,7.82,7.9h80.11c1.79,0,8.07-6.12,8.07-7.9V98C165,96.2,158.71,90,156.93,90Zm-40-29.11C135,60.89,139.81,71,140.67,90H93.24C94.59,71,101.59,60.89,116.9,60.89Z"/><rect class="cls-2" x="101.5" y="123.37" width="32.38" height="32.38" rx="3.58" ry="3.58"/><rect class="cls-2" x="103.51" y="109.15" width="2.38" height="7.57" rx="1.19" ry="1.19"/><rect class="cls-2" x="112.17" y="109.15" width="2.38" height="7.57" rx="1.19" ry="1.19"/><rect class="cls-2" x="120.83" y="109.15" width="2.38" height="7.57" rx="1.19" ry="1.19"/><rect class="cls-2" x="129.48" y="109.15" width="2.38" height="7.57" rx="1.19" ry="1.19"/><rect class="cls-2" x="103.51" y="162.39" width="2.38" height="7.57" rx="1.19" ry="1.19"/><rect class="cls-2" x="112.17" y="162.39" width="2.38" height="7.57" rx="1.19" ry="1.19"/><rect class="cls-2" x="120.83" y="162.39" width="2.38" height="7.57" rx="1.19" ry="1.19"/><rect class="cls-2" x="129.48" y="162.39" width="2.38" height="7.57" rx="1.19" ry="1.19"/><rect class="cls-2" x="143.12" y="122.78" width="2.38" height="7.57" rx="1.19" ry="1.19" transform="translate(270.88 -17.73) rotate(90)"/><rect class="cls-2" x="143.12" y="131.44" width="2.38" height="7.57" rx="1.19" ry="1.19" transform="translate(279.54 -9.08) rotate(90)"/><rect class="cls-2" x="143.12" y="140.1" width="2.38" height="7.57" rx="1.19" ry="1.19" transform="translate(288.19 -0.42) rotate(90)"/><rect class="cls-2" x="143.12" y="148.76" width="2.38" height="7.57" rx="1.19" ry="1.19" transform="translate(296.85 8.24) rotate(90)"/><rect class="cls-2" x="89.88" y="122.78" width="2.38" height="7.57" rx="1.19" ry="1.19" transform="translate(217.64 35.51) rotate(90)"/><rect class="cls-2" x="89.88" y="131.44" width="2.38" height="7.57" rx="1.19" ry="1.19" transform="translate(226.3 44.16) rotate(90)"/><rect class="cls-2" x="89.88" y="140.1" width="2.38" height="7.57" rx="1.19" ry="1.19" transform="translate(234.95 52.82) rotate(90)"/><rect class="cls-2" x="89.88" y="148.76" width="2.38" height="7.57" rx="1.19" ry="1.19" transform="translate(243.61 61.48) rotate(90)"/></svg>